<?xml version="1.0" encoding="UTF-8" standalone="no"?>
<!-- Created with Inkscape (http://www.inkscape.org/) -->

<svg
   width="300mm"
   height="300mm"
   viewBox="0 0 300 300"
   version="1.1"
   id="svg1"
   inkscape:version="1.4.3 (0d15f75042, 2025-12-25)"
   sodipodi:docname="Password Genarator logo.svg"
   xmlns:inkscape="http://www.inkscape.org/namespaces/inkscape"
   xmlns:sodipodi="http://sodipodi.sourceforge.net/DTD/sodipodi-0.dtd"
   xmlns="http://www.w3.org/2000/svg"
   xmlns:svg="http://www.w3.org/2000/svg">
  <sodipodi:namedview
     id="namedview1"
     pagecolor="#ffffff"
     bordercolor="#000000"
     borderopacity="0.25"
     inkscape:showpageshadow="2"
     inkscape:pageopacity="0.0"
     inkscape:pagecheckerboard="0"
     inkscape:deskcolor="#d1d1d1"
     inkscape:document-units="mm"
     inkscape:zoom="0.52599003"
     inkscape:cx="399.24711"
     inkscape:cy="426.81417"
     inkscape:window-width="1920"
     inkscape:window-height="1043"
     inkscape:window-x="0"
     inkscape:window-y="0"
     inkscape:window-maximized="1"
     inkscape:current-layer="svg1" />
  <defs
     id="defs1" />
  <path
     id="path1"
     style="fill:#0b142c;stroke:#0b142c;stroke-width:17.265;stroke-dasharray:none;stroke-opacity:1;fill-opacity:1"
     d="m 151.76696,38.728902 c -10.5282,0.01902 -20.86449,2.81929 -29.96251,8.117334 -18.30318,10.658828 -31.545568,27.00351 -29.683975,51.390662 h -0.0015 v 41.656372 c 0.948947,-0.0291 1.898598,-0.0362 2.847888,-0.0434 0.7322,-0.0715 1.466449,-0.12113 2.200899,-0.1633 0.54221,-0.0297 1.084948,-0.0485 1.627808,-0.062 V 98.236898 h -0.153996 c -0.006,-0.326649 -0.0049,-0.653388 0.0021,-0.980302 0.005,-0.184169 0.01105,-0.36819 0.01705,-0.552421 -0.0316,-0.315621 -0.03401,-0.63145 -0.0072,-0.947229 -0.0107,-0.140477 -0.02332,-0.280956 -0.03772,-0.421163 -0.0151,-0.201719 -0.01457,-0.404224 -0.02687,-0.606165 -0.0101,-0.155527 -0.02536,-0.310232 -0.05116,-0.464054 -0.001,-0.03059 -0.02113,-0.29083 0.02377,-0.31626 0.0488,-0.02764 0.09489,-0.05459 0.138493,-0.08061 4e-5,-0.0785 -3e-5,-0.157147 0,-0.235645 -0.004,-0.135476 0.0083,-0.271767 -0.0057,-0.406693 -0.0377,-0.278726 -0.03872,-0.558284 -0.02842,-0.838709 0.009,-0.203527 0.01912,-0.407161 0.02532,-0.610815 0.005,-0.19918 0.0068,-0.398663 0.0078,-0.597896 9e-4,-0.179032 0.0011,-0.357884 0.0021,-0.536918 -0.004,-0.14641 0.02566,-0.291104 0.04496,-0.435633 0.0334,-0.25139 0.130203,-0.420554 0.248563,-0.513147 1.35752,-16.416551 11.14883,-31.158171 26.19892,-39.444621 8.07899,-4.44832 17.2576,-6.799527 26.60665,-6.815604 9.34898,-0.01602 18.53649,2.303637 26.63248,6.724137 9.40675,5.136039 16.2281,13.883982 21.52427,22.180042 0.51437,1.678635 6.13467,-0.591413 4.18114,-1.19941 -1.25571,-0.390813 1.44987,-0.334878 0.75706,-0.218592 -3.99391,-9.534021 -13.27859,-18.489678 -23.13677,-24.181991 -9.11712,-5.264851 -19.46338,-8.027503 -29.99145,-8.008297 z M 98.59915,94.213888 c 0.006,0.03614 0.01618,0.06701 0.02945,0.09302 -0.009,-0.03119 -0.01895,-0.06227 -0.02945,-0.09302 z m 113.09852,36.689232 c -0.16955,0.0109 -0.33894,0.0218 -0.50849,0.0326 -0.4465,0.0267 -2.86718,0.19673 -6.12676,0.39739 v 7.91218 c 0.42288,-0.0138 0.84569,-0.0315 1.26814,-0.0439 1.25726,-0.0703 2.51293,-0.16602 3.76979,-0.24288 0.53213,-0.0332 1.06459,-0.0579 1.59732,-0.0765 z"
     sodipodi:nodetypes="ccccccccccccccccscccccscccccccscccccccccccccc" />
  <g
     inkscape:label="Layer 1"
     inkscape:groupmode="layer"
     id="layer1">
    <rect
       style="fill:#050e28;stroke-width:0.289947;fill-opacity:1"
       id="rect1"
       width="197.05148"
       height="141.56407"
       x="51.930542"
       y="120.93414"
       ry="28.810778" />
  </g>
  <g
     id="g44"
     transform="translate(0,12.170835)">
    <rect
       style="fill:#182137;fill-opacity:1;stroke:#283049;stroke-width:2.3;stroke-dasharray:none;stroke-opacity:1"
       id="rect43"
       width="245.78082"
       height="47.306587"
       x="32.723354"
       y="165.7509"
       ry="7.6473017" />
    <text
       xml:space="preserve"
       style="font-style:normal;font-variant:normal;font-weight:normal;font-stretch:normal;font-size:91.3124px;font-family:Lato;-inkscape-font-specification:Lato;writing-mode:lr-tb;direction:ltr;fill:#ffffff;fill-opacity:1;stroke:none;stroke-width:66.1476;stroke-dasharray:none;stroke-opacity:1"
       x="38.755116"
       y="244.41553"
       id="text43"><tspan
         id="tspan43"
         style="font-style:normal;font-variant:normal;font-weight:normal;font-stretch:normal;font-family:Lato;-inkscape-font-specification:Lato;fill:#ffffff;stroke:none;stroke-width:66.1476"
         x="38.755116"
         y="244.41553"
         sodipodi:role="line">******</tspan></text>
  </g>
</svg>
