<?xml version="1.0" encoding="UTF-8" standalone="no"?>
<!-- Created with Inkscape (http://www.inkscape.org/) -->

<svg
   width="300mm"
   height="300mm"
   viewBox="0 0 300 300"
   version="1.1"
   id="svg1"
   inkscape:version="1.4.3 (0d15f75042, 2025-12-25)"
   sodipodi:docname="Stop Watch.svg"
   xmlns:inkscape="http://www.inkscape.org/namespaces/inkscape"
   xmlns:sodipodi="http://sodipodi.sourceforge.net/DTD/sodipodi-0.dtd"
   xmlns="http://www.w3.org/2000/svg"
   xmlns:svg="http://www.w3.org/2000/svg">
  <sodipodi:namedview
     id="namedview1"
     pagecolor="#ffffff"
     bordercolor="#000000"
     borderopacity="0.25"
     inkscape:showpageshadow="2"
     inkscape:pageopacity="0.0"
     inkscape:pagecheckerboard="0"
     inkscape:deskcolor="#d1d1d1"
     inkscape:document-units="mm"
     inkscape:zoom="0.5"
     inkscape:cx="318"
     inkscape:cy="889"
     inkscape:window-width="1920"
     inkscape:window-height="1043"
     inkscape:window-x="0"
     inkscape:window-y="0"
     inkscape:window-maximized="1"
     inkscape:current-layer="layer1" />
  <defs
     id="defs1" />
  <g
     inkscape:label="Layer 1"
     inkscape:groupmode="layer"
     id="layer1">
    <g
       id="g1">
      <circle
         style="fill:none;fill-opacity:1;stroke:#ffffff;stroke-width:22.9264;stroke-linecap:round;stroke-linejoin:round;stroke-dasharray:none;stroke-dashoffset:0;stroke-opacity:1"
         id="path1"
         cx="154.08131"
         cy="172.15335"
         r="114.72971" />
      <circle
         style="fill:none;fill-opacity:1;stroke:#ffffff;stroke-width:7.18308;stroke-linecap:round;stroke-linejoin:round;stroke-dasharray:none;stroke-dashoffset:0;stroke-opacity:1"
         id="path1-9"
         cx="155.46971"
         cy="172.12549"
         r="9.4411097" />
      <path
         id="path7"
         style="fill:#ffffff;fill-opacity:1;stroke:#ffffff;stroke-width:6.46809;stroke-linecap:round;stroke-linejoin:round;stroke-dasharray:none;stroke-dashoffset:0;stroke-opacity:1"
         d="m 48.925164,61.732171 10e-4,0.0029 7.3e-4,7.14e-4 6e-4,6.86e-4 6.6e-4,7.27e-4 -6.6e-4,0.0014 0.003,0.0029 c -5.39612,5.146409 -6.00499,13.392974 -1.7148,19.257713 l -0.053,0.05297 0.52831,0.559428 a 1.039652,1.039652 0 0 0 0.0331,0.03313 1.039652,1.039652 0 0 0 0.0331,0.03313 l 8.79494,9.320662 1.53962,-1.452767 -9.0673,-9.609237 c -3.77041,-5.023217 -3.39828,-12.493456 1.21511,-16.89192 4.70369,-4.483919 12.36211,-4.388541 17.18524,-0.143451 a 1.039652,1.039652 0 0 0 0.14432,0.124647 l 8.7735,9.297933 1.51348,-1.428037 -9.38786,-9.948985 -0.0688,0.06482 c -5.66021,-4.662352 -14.03503,-4.463916 -19.47034,0.717973 z" />
      <path
         id="path7-2"
         style="fill:#ffffff;fill-opacity:1;stroke:#ffffff;stroke-width:6.46809;stroke-linecap:round;stroke-linejoin:round;stroke-dasharray:none;stroke-dashoffset:0;stroke-opacity:1"
         d="m 259.46126,62.349813 -9.9e-4,0.0029 -7.1e-4,7.14e-4 -6e-4,6.85e-4 -6.7e-4,7.28e-4 6.7e-4,0.0014 -0.003,0.0029 c 5.3961,5.146408 6.00498,13.393003 1.7148,19.257812 l 0.053,0.05297 -0.52831,0.559415 a 1.039652,1.039652 0 0 1 -0.0332,0.03313 1.039652,1.039652 0 0 1 -0.0332,0.03313 l -8.79495,9.320649 -1.53964,-1.452696 9.0673,-9.609237 c 3.77043,-5.023316 3.3983,-12.493569 -1.21509,-16.892019 -4.70371,-4.48392 -12.36213,-4.388543 -17.18526,-0.143466 a 1.039652,1.039652 0 0 1 -0.14432,0.124646 l -8.77348,9.297963 -1.51348,-1.428009 9.38785,-9.949043 0.0688,0.06483 c 5.66028,-4.662395 14.03509,-4.463972 19.4704,0.717917 z" />
      <rect
         style="fill:none;fill-opacity:1;stroke:#ffffff;stroke-width:9.26849;stroke-linecap:round;stroke-linejoin:round;stroke-dasharray:none;stroke-dashoffset:0;stroke-opacity:1"
         id="rect15"
         width="22.913971"
         height="20.436783"
         x="142.21205"
         y="31.335424" />
      <rect
         style="fill:none;fill-opacity:1;stroke:#ffffff;stroke-width:10.9236;stroke-linecap:round;stroke-linejoin:round;stroke-dasharray:none;stroke-dashoffset:0;stroke-opacity:1"
         id="rect15-5"
         width="99.523415"
         height="25.302313"
         x="103.79784"
         y="6.2386274" />
      <circle
         style="fill:#ffffff;fill-opacity:1;stroke:none;stroke-width:1.20195;stroke-linecap:round;stroke-linejoin:round;stroke-dasharray:none;stroke-dashoffset:0;stroke-opacity:1"
         id="path16"
         cx="155.39082"
         cy="125.91959"
         r="7.4374895" />
      <rect
         style="fill:#ffffff;fill-opacity:1;stroke:none;stroke-width:2.09873;stroke-linecap:round;stroke-linejoin:round;stroke-dasharray:none;stroke-dashoffset:0;stroke-opacity:1"
         id="rect16"
         width="14.874979"
         height="36.862362"
         x="147.95332"
         y="125.3978" />
      <path
         id="path16-4-7"
         style="fill:#ffffff;fill-opacity:1;stroke:none;stroke-width:1.06197;stroke-linecap:round;stroke-linejoin:round;stroke-dasharray:none;stroke-dashoffset:0;stroke-opacity:1"
         d="m 153.79457,252.30931 a 6.5713498,6.5713498 0 0 0 -6.55494,6.1444 h -0.0129 v 0.42437 16.82867 h 13.14066 v -16.81496 a 6.5713498,6.5713498 0 0 0 0,-0.0129 6.5713498,6.5713498 0 0 0 0,-0.0129 v -0.41377 h -0.0129 a 6.5713498,6.5713498 0 0 0 -6.55835,-6.14441 z" />
      <path
         id="path16-4-2-2"
         style="fill:#ffffff;fill-opacity:1;stroke:none;stroke-width:1.06197;stroke-linecap:round;stroke-linejoin:round;stroke-dasharray:none;stroke-dashoffset:0;stroke-opacity:1"
         d="m 147.11987,68.045526 v 16.825269 0.424359 h 0.0129 a 6.5713498,6.5713498 0 0 0 6.55831,6.147859 6.5713498,6.5713498 0 0 0 6.55839,-6.147859 h 0.0129 V 84.88139 a 6.5713498,6.5713498 0 0 0 0,-0.01285 6.5713498,6.5713498 0 0 0 0,-0.01284 V 68.040686 Z" />
      <path
         id="path16-4-4-2"
         style="fill:#ffffff;fill-opacity:1;stroke:none;stroke-width:1.06197;stroke-linecap:round;stroke-linejoin:round;stroke-dasharray:none;stroke-dashoffset:0;stroke-opacity:1"
         d="m 49.818614,165.50415 v 13.14414 h 16.81498 0.0198 0.41376 v -0.0129 a 6.5713498,6.5713498 0 0 0 6.14786,-6.55831 6.5713498,6.5713498 0 0 0 -6.14786,-6.55503 v -0.0199 h -0.42435 z" />
      <path
         id="path16-4-4-3-6"
         style="fill:#ffffff;fill-opacity:1;stroke:none;stroke-width:1.06197;stroke-linecap:round;stroke-linejoin:round;stroke-dasharray:none;stroke-dashoffset:0;stroke-opacity:1"
         d="m 240.6818,164.66257 v 0.0129 a 6.5713498,6.5713498 0 0 0 -6.14778,6.55838 6.5713498,6.5713498 0 0 0 6.14778,6.55838 v 0.0129 h 0.41378 0.0199 16.81503 v -13.14412 h -16.82533 z" />
      <path
         id="path16-4-4-3-8"
         style="fill:#ffffff;fill-opacity:1;stroke:none;stroke-width:1.06197;stroke-linecap:round;stroke-linejoin:round;stroke-dasharray:none;stroke-dashoffset:0;stroke-opacity:1"
         d="M 226.01182,97.399143 213.6854,108.81211 a 6.5713495,6.5713495 0 0 0 -0.0199,0.0199 6.5713495,6.5713495 0 0 0 -0.0332,0.0332 l -0.2774,0.25687 0.007,0.007 a 6.5713495,6.5713495 0 0 0 -0.0529,8.98738 6.5713495,6.5713495 0 0 0 8.96343,0.63622 l 0.007,0.007 0.30455,-0.28403 a 6.5713495,6.5713495 0 0 0 0.007,-0.007 6.5713495,6.5713495 0 0 0 0.007,-0.007 l 12.34015,-11.42322 z" />
      <path
         id="path16-4-4-3-8-2"
         style="fill:#ffffff;fill-opacity:1;stroke:none;stroke-width:1.06197;stroke-linecap:round;stroke-linejoin:round;stroke-dasharray:none;stroke-dashoffset:0;stroke-opacity:1"
         d="m 82.507794,96.099116 -8.92926,9.644184 12.3367,11.41985 a 6.5713498,6.5713498 0 0 0 0.007,0.007 6.5713498,6.5713498 0 0 0 0.0264,0.0199 l 0.284,0.26348 0.0128,-0.0129 a 6.5713498,6.5713498 0 0 0 8.963363,-0.63622 6.5713498,6.5713498 0 0 0 -0.053,-8.98739 l 0.0128,-0.0129 -0.31115,-0.28733 z" />
      <path
         id="path16-4-4-3-8-6"
         style="fill:#ffffff;fill-opacity:1;stroke:none;stroke-width:1.06197;stroke-linecap:round;stroke-linejoin:round;stroke-dasharray:none;stroke-dashoffset:0;stroke-opacity:1"
         d="m 217.94595,224.82608 a 6.5713498,6.5713498 0 0 0 -4.80671,2.10739 6.5713498,6.5713498 0 0 0 0.053,8.98739 l -0.0129,0.0129 0.31115,0.28732 12.34695,11.43012 8.9292,-9.64434 -12.31274,-11.39581 a 6.5713498,6.5713498 0 0 0 -0.0332,-0.0332 6.5713498,6.5713498 0 0 0 -0.0266,-0.0199 l -0.28401,-0.26352 -0.0129,0.0129 a 6.5713498,6.5713498 0 0 0 -4.15666,-1.47112 z" />
      <path
         id="path16-4-4-3-8-4"
         style="fill:#ffffff;fill-opacity:1;stroke:none;stroke-width:1.06197;stroke-linecap:round;stroke-linejoin:round;stroke-dasharray:none;stroke-dashoffset:0;stroke-opacity:1"
         d="m 89.439034,223.38001 a 6.5713498,6.5713498 0 0 0 -4.16009,1.46766 l -0.007,-0.007 -0.30454,0.28401 a 6.5713498,6.5713498 0 0 0 -0.007,0.007 6.5713498,6.5713498 0 0 0 -0.007,0.007 l -12.34013,11.42329 8.9292,9.64427 12.32643,-11.41302 0.0198,-0.0199 a 6.5713498,6.5713498 0 0 0 0.0331,-0.0332 l 0.276723,-0.25621 -0.007,-0.007 a 6.5713498,6.5713498 0 0 0 0.053,-8.98394 6.5713498,6.5713498 0 0 0 -4.803333,-2.10746 z" />
      <circle
         style="fill:#ffffff;fill-opacity:1;stroke:none;stroke-width:1.20195;stroke-linecap:round;stroke-linejoin:round;stroke-dasharray:none;stroke-dashoffset:0;stroke-opacity:1"
         id="path16-7"
         cx="6.712183"
         cy="-295.39462"
         r="7.4374895"
         transform="rotate(136.23145)" />
      <rect
         style="fill:#ffffff;fill-opacity:1;stroke:none;stroke-width:2.52114;stroke-linecap:round;stroke-linejoin:round;stroke-dasharray:none;stroke-dashoffset:0;stroke-opacity:1"
         id="rect16-1"
         width="14.874891"
         height="53.194199"
         x="-0.25177836"
         y="-295.56342"
         transform="matrix(-0.71984196,0.69413799,-0.69293645,-0.72099866,0,0)" />
    </g>
  </g>
</svg>
